HIERARCHY
ROOT Hips
{
	OFFSET 0.000000 0.000000 0.000000
	CHANNELS 6 Xposition Yposition Zposition Zrotation Yrotation Xrotation 
	JOINT LowerBack
	{
		OFFSET 0.000000 0.000000 0.000000
		CHANNELS 3 Zrotation Yrotation Xrotation
		JOINT Spine
		{
			OFFSET 0.028270 2.035590 -0.193380
			CHANNELS 3 Zrotation Yrotation Xrotation
			JOINT Spine1
			{
				OFFSET 0.056720 2.048850 -0.042750
				CHANNELS 3 Zrotation Yrotation Xrotation
				JOINT Neck
				{
					OFFSET 0.000000 0.000000 0.000000
					CHANNELS 3 Zrotation Yrotation Xrotation
					JOINT Neck1
					{
						OFFSET -0.054170 1.746240 0.172020
						CHANNELS 3 Zrotation Yrotation Xrotation
						JOINT Head
						{
							OFFSET 0.104070 1.761360 -0.123970
							CHANNELS 3 Zrotation Yrotation Xrotation
							End Site
							{
								OFFSET 0.000000 0.000000 0.000000
							}
						}
					}
				}
				JOINT LeftShoulder
				{
					OFFSET 0.000000 0.000000 0.000000
					CHANNELS 3 Zrotation Yrotation Xrotation
					JOINT LeftArm
					{
						OFFSET 3.362410 1.200890 -0.311210
						CHANNELS 3 Zrotation Yrotation Xrotation
						JOINT LeftForeArm
						{
							OFFSET 4.983000 -0.000000 -0.000000
							CHANNELS 3 Zrotation Yrotation Xrotation
							JOINT LeftHand
							{
								OFFSET 3.483560 -0.000000 -0.000000
								CHANNELS 3 Zrotation Yrotation Xrotation
								JOINT LeftFingerBase
								{
									OFFSET 0.000000 0.000000 0.000000
									CHANNELS 3 Zrotation Yrotation Xrotation
									JOINT LeftHandIndex1
									{
										OFFSET 0.715260 -0.000000 -0.000000
										CHANNELS 3 Zrotation Yrotation Xrotation
										End Site
										{
											OFFSET 0.000000 0.000000 0.000000
										}
									}
								}
								JOINT LThumb
								{
									OFFSET 0.000000 0.000000 0.000000
									CHANNELS 3 Zrotation Yrotation Xrotation
									End Site
									{
										OFFSET 0.000000 0.000000 0.000000
									}
								}
							}
						}
					}
				}
				JOINT RightShoulder
				{
					OFFSET 0.000000 0.000000 0.000000
					CHANNELS 3 Zrotation Yrotation Xrotation
					JOINT RightArm
					{
						OFFSET -3.136600 1.374050 -0.404650
						CHANNELS 3 Zrotation Yrotation Xrotation
						JOINT RightForeArm
						{
							OFFSET -5.241900 -0.000000 -0.000000
							CHANNELS 3 Zrotation Yrotation Xrotation
							JOINT RightHand
							{
								OFFSET -3.444170 -0.000000 -0.000000
								CHANNELS 3 Zrotation Yrotation Xrotation
								JOINT RightFingerBase
								{
									OFFSET 0.000000 0.000000 0.000000
									CHANNELS 3 Zrotation Yrotation Xrotation
									JOINT RightHandIndex1
									{
										OFFSET -0.622530 -0.000000 -0.000000
										CHANNELS 3 Zrotation Yrotation Xrotation
										End Site
										{
											OFFSET 0.000000 0.000000 0.000000
										}
									}
								}
								JOINT RThumb
								{
									OFFSET 0.000000 0.000000 0.000000
									CHANNELS 3 Zrotation Yrotation Xrotation
									End Site
									{
										OFFSET 0.000000 0.000000 0.000000
									}
								}
							}
						}
					}
				}
			}
		}
	}
}
}
MOTION
Frames: 17
Frame Time: 0.008333
16.967845 16.744408 1.149031 150.740769 -86.374078 -101.827799 0.368613 -2.088481 -4.333634 -0.451923 -2.291359 -3.657447 -4.857737 -2.520629 1.716660 10.160216 -12.958362 -14.453118 -1.765946 -0.024034 -2.257693 0.000000 0.000000 0.000000 -3.743694 16.237948 3.099644 -56.331147 37.972579 -6.051838 -2.753357 -4.774841 0.009202 7.618151 1.435339 0.104893 -0.182722 -0.104096 -0.000000 0.000000 0.000000 0.000000 0.000000 0.000000 0.000000 13.328966 -11.526080 3.280737 52.117006 -41.209221 -30.051939 2.140787 0.520526 0.000811 -15.491024 3.467385 -0.486684 0.251592 -0.053455 -0.000000 0.000000 0.000000 0.000000 0.000000 0.000000 0.000000 
16.939564 16.648297 1.149432 149.007669 -86.329622 -99.125465 0.344157 -2.108775 -4.752239 -0.475266 -2.326766 -3.770494 -4.924297 -2.560875 1.698463 10.306843 -12.833223 -14.604999 -1.824385 -0.026922 -2.313427 0.000000 0.000000 0.000000 -3.873538 16.021669 3.151174 -56.527971 37.127656 -5.657266 -2.745336 -5.097897 0.008320 7.425437 1.546197 0.109390 -0.176439 -0.101440 -0.000000 0.000000 0.000000 0.000000 0.000000 0.000000 0.000000 13.654067 -11.368011 3.388080 52.775680 -40.207298 -30.435170 2.084226 0.490664 -0.000064 -15.566814 3.465714 -0.488887 0.246074 -0.055187 -0.000000 0.000000 0.000000 0.000000 0.000000 0.000000 0.000000 
16.910537 16.542356 1.149539 146.734572 -86.294888 -95.909036 0.323106 -2.139677 -5.185329 -0.498009 -2.373496 -3.885789 -4.993635 -2.612219 1.682639 10.449768 -12.712037 -14.742586 -1.887001 -0.030505 -2.364145 0.000000 0.000000 0.000000 -4.001199 15.793349 3.198058 -56.697494 36.277784 -5.253658 -2.740944 -5.448393 0.007432 7.205171 1.649050 0.112586 -0.170212 -0.098584 -0.000000 0.000000 0.000000 0.000000 0.000000 0.000000 0.000000 13.990495 -11.221323 3.484085 53.402845 -39.193931 -30.678839 2.037185 0.515549 -0.000909 -15.579134 3.438135 -0.485488 0.240528 -0.056604 -0.000000 0.000000 0.000000 0.000000 0.000000 0.000000 0.000000 
16.880455 16.426594 1.149538 143.946497 -86.266815 -92.214953 0.309870 -2.180087 -5.628324 -0.518475 -2.430429 -4.002386 -5.063537 -2.673458 1.668070 10.581730 -12.586443 -14.861732 -1.952372 -0.034719 -2.408417 0.000000 0.000000 0.000000 -4.132692 15.549072 3.239598 -56.838782 35.428233 -4.831649 -2.740691 -5.826297 0.006536 6.955843 1.746637 0.114584 -0.164047 -0.095590 -0.000000 0.000000 0.000000 0.000000 0.000000 0.000000 0.000000 14.320559 -11.079292 3.569282 53.999368 -38.150587 -30.901986 1.996709 0.520132 -0.001582 -15.514431 3.461468 -0.486788 0.234810 -0.058429 -0.000000 0.000000 0.000000 0.000000 0.000000 0.000000 0.000000 
16.849599 16.301180 1.149705 140.686069 -86.243789 -88.095319 0.306072 -2.226237 -6.074591 -0.537360 -2.493822 -4.118852 -5.137037 -2.740701 1.653133 10.709085 -12.463801 -14.962595 -2.022950 -0.039800 -2.446189 0.000000 0.000000 0.000000 -4.261757 15.280490 3.276806 -56.955648 34.574708 -4.404652 -2.744314 -6.219462 0.005659 6.687264 1.835577 0.115281 -0.158037 -0.092441 -0.000000 0.000000 0.000000 0.000000 0.000000 0.000000 0.000000 14.665335 -10.942239 3.643188 54.598639 -37.161944 -30.667078 1.979814 0.737713 -0.002460 -15.403582 3.285257 -0.458987 0.229536 -0.058284 -0.000000 0.000000 0.000000 0.000000 0.000000 0.000000 0.000000 
16.817925 16.166609 1.150246 137.013046 -86.220953 -83.623139 0.318428 -2.278427 -6.517553 -0.551685 -2.564052 -4.234219 -5.210380 -2.814369 1.635961 10.819094 -12.318931 -15.039927 -2.096777 -0.045647 -2.475817 0.000000 0.000000 0.000000 -4.406396 14.985868 3.308266 -57.044446 33.725629 -3.934993 -2.751374 -6.633495 0.004792 6.402933 1.930953 0.115679 -0.152079 -0.089354 -0.000000 0.000000 0.000000 0.000000 0.000000 0.000000 0.000000 14.991194 -10.791428 3.708055 55.166788 -36.116648 -30.596879 1.963880 0.827510 -0.003022 -15.204704 3.256060 -0.449085 0.223799 -0.059495 -0.000000 0.000000 0.000000 0.000000 0.000000 0.000000 0.000000 
16.785653 16.023594 1.151357 132.997689 -86.196372 -78.879587 0.348701 -2.333458 -6.950056 -0.561367 -2.637938 -4.346809 -5.284313 -2.891189 1.616187 10.913482 -12.150662 -15.094600 -2.175165 -0.052367 -2.497585 0.000000 0.000000 0.000000 -4.559177 14.665357 3.335832 -57.111594 32.856979 -3.435356 -2.760502 -7.034212 0.003980 6.124354 2.025738 0.115677 -0.146269 -0.086258 -0.000000 0.000000 0.000000 0.000000 0.000000 0.000000 0.000000 15.305351 -10.621211 3.764070 55.720594 -35.044950 -30.518062 1.955125 0.871535 -0.003380 -14.938439 3.294599 -0.446482 0.217852 -0.061199 -0.000000 0.000000 0.000000 0.000000 0.000000 0.000000 0.000000 
16.752509 15.873214 1.153255 128.724719 -86.167955 -73.960041 0.400804 -2.385797 -7.365230 -0.565129 -2.710004 -4.454934 -5.357056 -2.965734 1.595423 10.982387 -11.961492 -15.129744 -2.255406 -0.059658 -2.512440 0.000000 0.000000 0.000000 -4.732578 14.302027 3.358577 -57.157242 31.963150 -2.902437 -2.770703 -7.409919 0.003239 5.872662 2.124323 0.115976 -0.140672 -0.083162 -0.000000 0.000000 0.000000 0.000000 0.000000 0.000000 0.000000 15.586035 -10.430476 3.826404 56.343967 -33.942891 -30.272141 1.945963 1.009629 -0.004355 -14.839805 3.058385 -0.412082 0.212866 -0.060847 -0.000000 0.000000 0.000000 0.000000 0.000000 0.000000 0.000000 
16.718539 15.716636 1.156036 124.279099 -86.138062 -68.955561 0.471032 -2.436800 -7.757070 -0.566275 -2.781886 -4.559575 -5.437921 -3.039686 1.562787 11.051064 -11.726680 -15.138240 -2.349891 -0.068806 -2.518534 0.000000 0.000000 0.000000 -4.900684 13.901039 3.382087 -57.196300 31.031745 -2.377099 -2.779047 -7.719376 0.002641 5.683350 2.213939 0.116574 -0.135295 -0.080037 -0.000000 0.000000 0.000000 0.000000 0.000000 0.000000 0.000000 15.904339 -10.189395 3.870704 56.906279 -32.870762 -29.879948 1.957447 1.111099 -0.004676 -14.541486 3.030701 -0.400177 0.207078 -0.061747 -0.000000 0.000000 0.000000 0.000000 0.000000 0.000000 0.000000 
16.683740 15.555522 1.159734 119.752120 -86.106453 -63.965880 0.562705 -2.482262 -8.121235 -0.562988 -2.849436 -4.659119 -5.522974 -3.108985 1.522419 11.106624 -11.445034 -15.123945 -2.454575 -0.079355 -2.517149 0.000000 0.000000 0.000000 -5.073536 13.456544 3.405776 -57.233293 30.036008 -1.866356 -2.783865 -7.928541 0.002207 5.583013 2.289898 0.118073 -0.130140 -0.076771 0.000000 0.000000 0.000000 0.000000 0.000000 0.000000 0.000000 16.227598 -9.896894 3.912103 57.470302 -31.767476 -29.437519 1.971725 1.172991 -0.004941 -14.265038 3.025954 -0.391973 0.201320 -0.062724 -0.000000 0.000000 0.000000 0.000000 0.000000 0.000000 0.000000 
16.647751 15.391535 1.164387 115.227487 -86.076493 -59.075245 0.673090 -2.518535 -8.454245 -0.557022 -2.909029 -4.753015 -5.615184 -3.170054 1.473705 11.156972 -11.120963 -15.089592 -2.572467 -0.091535 -2.509403 0.000000 0.000000 0.000000 -5.240329 12.964940 3.431937 -57.280085 28.946079 -1.412432 -2.782637 -7.992348 0.001980 5.605859 2.336200 0.120571 -0.125197 -0.073164 0.000000 0.000000 0.000000 0.000000 0.000000 0.000000 0.000000 16.579338 -9.551399 3.951697 58.047024 -30.672844 -28.655042 1.996138 1.345077 -0.005426 -14.070241 2.874623 -0.367569 0.196111 -0.062336 -0.000000 0.000000 0.000000 0.000000 0.000000 0.000000 0.000000 
16.595969 15.214099 1.192077 97.191713 -86.290863 -40.417931 1.642864 -2.632534 -9.222774 -0.325426 -3.130831 -4.944093 -5.697858 -3.393644 1.448076 10.983069 -10.740667 -15.016717 -2.696877 -0.105721 -2.478597 0.000000 0.000000 0.000000 -5.720779 12.525137 3.460524 -57.325916 27.825423 -0.927220 -2.744983 -7.930571 0.002005 5.770057 2.345722 0.124174 -0.118398 -0.068735 0.000000 0.000000 0.000000 0.000000 0.000000 0.000000 0.000000 16.652014 -9.228990 3.929863 58.321455 -29.650421 -27.925736 2.080617 1.278981 -0.004765 -13.729623 3.157798 -0.393460 0.193534 -0.064632 -0.000000 0.000000 0.000000 0.000000 0.000000 0.000000 0.000000 
16.557009 15.050256 1.198256 93.052506 -86.234740 -36.112798 1.797645 -2.633590 -9.492265 -0.311179 -3.161952 -5.025571 -5.801918 -3.426102 1.386386 11.016619 -10.308785 -14.940693 -2.839405 -0.120893 -2.458379 0.000000 0.000000 0.000000 -5.876124 11.953481 3.492643 -57.423894 26.467052 -0.648505 -2.725654 -7.604023 0.002217 6.106698 2.292877 0.128074 -0.113254 -0.063976 0.000000 0.000000 0.000000 0.000000 0.000000 0.000000 0.000000 17.034432 -8.756988 3.974134 58.894059 -28.383099 -27.186938 2.089333 1.273425 -0.005316 -13.755811 3.085848 -0.385256 0.188634 -0.064721 -0.000000 0.000000 0.000000 0.000000 0.000000 0.000000 0.000000 
16.516131 14.889639 1.204919 89.169386 -86.192458 -32.162653 1.956790 -2.622067 -9.727945 -0.297848 -3.180489 -5.100101 -5.910759 -3.445926 1.320512 11.043720 -9.829050 -14.843727 -2.994382 -0.137487 -2.432395 0.000000 0.000000 0.000000 -6.015563 11.343462 3.530379 -57.558470 24.927970 -0.498128 -2.695252 -7.039895 0.002607 6.624551 2.160973 0.130475 -0.107697 -0.058273 0.000000 0.000000 0.000000 0.000000 0.000000 0.000000 0.000000 17.439220 -8.229873 4.021821 59.461265 -27.006201 -26.393641 2.088316 1.214694 -0.006051 -13.931664 2.992005 -0.378455 0.184065 -0.064712 -0.000000 0.000000 0.000000 0.000000 0.000000 0.000000 0.000000 
16.473497 14.734095 1.211805 85.588587 -86.163247 -28.608227 2.112530 -2.597239 -9.930461 -0.286826 -3.184706 -5.166714 -6.020878 -3.451427 1.255417 11.058806 -9.313345 -14.727601 -3.157878 -0.155027 -2.401465 0.000000 0.000000 0.000000 -6.140625 10.699330 3.573243 -57.729847 23.177546 -0.480457 -2.652957 -6.229816 0.003085 7.324603 1.932416 0.128678 -0.101442 -0.051412 0.000000 0.000000 0.000000 0.000000 0.000000 0.000000 0.000000 17.850674 -7.662235 4.079921 60.053232 -25.486017 -25.503534 2.071528 1.168562 -0.007456 -14.351651 2.663190 -0.347657 0.180164 -0.063504 -0.000000 0.000000 0.000000 0.000000 0.000000 0.000000 0.000000 
16.429181 14.585530 1.218520 82.359823 -86.146039 -25.498794 2.254792 -2.564158 -10.100677 -0.280603 -3.178877 -5.225574 -6.133388 -3.446947 1.189803 11.069845 -8.751096 -14.584728 -3.331317 -0.173649 -2.363617 0.000000 0.000000 0.000000 -6.246079 10.031759 3.621699 -57.937532 21.209623 -0.582121 -2.598701 -5.195486 0.003517 8.193861 1.598721 0.118982 -0.094087 -0.043375 0.000000 0.000000 0.000000 0.000000 0.000000 0.000000 0.000000 18.280951 -7.051727 4.137986 60.596565 -23.748320 -24.935148 2.032079 0.851794 -0.008611 -14.840377 2.619268 -0.353660 0.175712 -0.064617 0.000000 0.000000 0.000000 0.000000 0.000000 0.000000 0.000000 
16.383086 14.445551 1.224739 79.524537 -86.137198 -22.871117 2.371472 -2.522843 -10.238194 -0.282052 -3.161632 -5.276137 -6.246468 -3.431106 1.124605 11.077816 -8.159899 -14.414262 -3.511377 -0.192938 -2.318817 0.000000 0.000000 0.000000 -6.327826 9.340426 3.675758 -58.177648 19.012706 -0.785677 -2.533333 -3.970349 0.003705 9.211627 1.153559 0.096585 -0.085434 -0.034085 0.000000 0.000000 0.000000 0.000000 0.000000 0.000000 0.000000 18.728625 -6.417283 4.196218 61.115070 -21.827532 -24.399608 1.979409 0.438409 -0.009799 -15.418679 2.695247 -0.378062 0.171175 -0.066784 -0.000000 0.000000 0.000000 0.000000 0.000000 0.000000 0.000000 
